<svg xmlns="http://www.w3.org/2000/svg" xmlns:xlink="http://www.w3.org/1999/xlink" width="1507" height="458"
     viewBox="0 0 1507 458">
    <defs>
        <filter id="Ellipse_2" x="1049" y="0" width="458" height="458" filterUnits="userSpaceOnUse">
            <feOffset dx="5" dy="13" input="SourceAlpha"/>
            <feGaussianBlur stdDeviation="16.5" result="blur"/>
            <feFlood flood-opacity="0.129"/>
            <feComposite operator="in" in2="blur"/>
            <feComposite in="SourceGraphic"/>
        </filter>
        <filter id="Ellipse_2-2" x="0" y="0" width="458" height="458" filterUnits="userSpaceOnUse">
            <feOffset dx="5" dy="13" input="SourceAlpha"/>
            <feGaussianBlur stdDeviation="16.5" result="blur-2"/>
            <feFlood flood-opacity="0.129"/>
            <feComposite operator="in" in2="blur-2"/>
            <feComposite in="SourceGraphic"/>
        </filter>
    </defs>
    <g id="Group_1" data-name="Group 1" transform="translate(-913.5 -279.5)">
        <g id="asgardeo" transform="translate(1049)">
            <g transform="matrix(1, 0, 0, 1, -135.5, 279.5)" filter="url(#Ellipse_2)">
                <circle id="Ellipse_2-3" data-name="Ellipse 2" cx="179.5" cy="179.5" r="179.5"
                        transform="translate(1093.5 36.5)" fill="#fff"/>
            </g>
            <g id="logo-dark" transform="translate(733.113 408.91)">
                <path id="Path_3" data-name="Path 3"
                      d="M370.563,0l18.429,31.824L368.568,67.068h40.754l18.334,31.824H313.47Z"
                      transform="translate(76.667)" fill="#ff7300"/>
                <path id="Path_4" data-name="Path 4"
                      d="M304.45,98.892l18.334-31.824h40.754L343.209,31.824,361.543,0l57.188,98.892Z"
                      transform="translate(0)" fill="#ff7300"/>
                <path id="Path_5" data-name="Path 5"
                      d="M386.383,106.8,366.053,71.458,345.724,106.8H308.96L366.053,7.81,423.147,106.8Z"
                      transform="translate(38.333 66.383)"/>
            </g>
        </g>
        <g id="react">
            <g transform="matrix(1, 0, 0, 1, 913.5, 279.5)" filter="url(#Ellipse_2-2)">
                <circle id="Ellipse_2-4" data-name="Ellipse 2" cx="179.5" cy="179.5" r="179.5"
                        transform="translate(44.5 36.5)" fill="#fff"/>
            </g>
            <g id="react-logo" transform="translate(857.016 324.185)">
                <path id="Path_1" data-name="Path 1"
                      d="M385.268,171.336c0-13.883-17.386-27.04-44.041-35.2,6.151-27.168,3.417-48.782-8.629-55.7a18.728,18.728,0,0,0-9.569-2.392v9.526a9.892,9.892,0,0,1,4.87,1.111c5.809,3.332,8.33,16.019,6.365,32.337-.47,4.015-1.239,8.244-2.179,12.559a207.013,207.013,0,0,0-27.125-4.656,208.375,208.375,0,0,0-17.77-21.358c13.926-12.943,27-20.034,35.882-20.034V78c-11.747,0-27.125,8.372-42.674,22.9-15.549-14.438-30.927-22.725-42.674-22.725V87.7c8.842,0,21.956,7.048,35.882,19.906a201.758,201.758,0,0,0-17.642,21.316,199.474,199.474,0,0,0-27.168,4.7c-.982-4.272-1.709-8.415-2.221-12.388-2.008-16.318.47-29,6.237-32.379a9.507,9.507,0,0,1,4.912-1.111V78.214a19.047,19.047,0,0,0-9.654,2.392c-12,6.92-14.695,28.492-8.5,55.574-26.57,8.2-43.87,21.316-43.87,35.156,0,13.883,17.386,27.04,44.041,35.2-6.151,27.168-3.417,48.782,8.629,55.7a18.778,18.778,0,0,0,9.611,2.392c11.747,0,27.125-8.372,42.674-22.9,15.549,14.438,30.927,22.725,42.674,22.725a19.047,19.047,0,0,0,9.654-2.392c12-6.92,14.695-28.492,8.5-55.574,26.484-8.159,43.785-21.316,43.785-35.156Zm-55.617-28.492c-1.581,5.51-3.546,11.192-5.767,16.873-1.751-3.417-3.588-6.835-5.6-10.252-1.965-3.417-4.058-6.749-6.151-10C318.2,140.366,324.055,141.477,329.651,142.844Zm-19.564,45.493c-3.332,5.767-6.749,11.234-10.295,16.318-6.365.555-12.815.854-19.308.854-6.45,0-12.9-.3-19.223-.812q-5.318-7.625-10.337-16.232-4.87-8.394-8.885-17c2.648-5.724,5.639-11.448,8.842-17.044,3.332-5.767,6.749-11.234,10.295-16.318,6.365-.555,12.815-.854,19.308-.854,6.45,0,12.9.3,19.223.812q5.318,7.625,10.337,16.232,4.87,8.394,8.885,17C316.238,177.017,313.29,182.741,310.087,188.337Zm13.8-5.553c2.307,5.724,4.272,11.448,5.895,17-5.6,1.367-11.491,2.52-17.6,3.417,2.093-3.289,4.186-6.664,6.151-10.124C320.3,189.661,322.133,186.2,323.884,182.784Zm-43.315,45.579a176.1,176.1,0,0,1-11.875-13.669c3.845.171,7.774.3,11.747.3,4.015,0,7.988-.085,11.875-.3A166.734,166.734,0,0,1,280.569,228.363ZM248.788,203.2c-6.066-.9-11.918-2.008-17.514-3.375,1.581-5.51,3.546-11.192,5.767-16.873,1.751,3.417,3.588,6.835,5.6,10.252S246.7,199.956,248.788,203.2Zm31.568-88.893a176.111,176.111,0,0,1,11.875,13.669c-3.844-.171-7.774-.3-11.747-.3-4.015,0-7.988.085-11.875.3A166.731,166.731,0,0,1,280.356,114.309Zm-31.61,25.16c-2.093,3.289-4.186,6.664-6.151,10.124-1.965,3.417-3.8,6.835-5.553,10.252-2.307-5.724-4.272-11.448-5.895-17,5.6-1.324,11.491-2.478,17.6-3.375Zm-38.659,53.481c-15.122-6.45-24.9-14.908-24.9-21.615s9.782-15.207,24.9-21.615c3.674-1.581,7.689-2.99,11.833-4.314a205.163,205.163,0,0,0,9.611,26.014,202.268,202.268,0,0,0-9.483,25.886C217.819,195.983,213.8,194.531,210.087,192.951Zm22.982,61.042c-5.809-3.332-8.33-16.019-6.365-32.337.47-4.015,1.239-8.244,2.179-12.559a207.013,207.013,0,0,0,27.125,4.656,208.376,208.376,0,0,0,17.77,21.358c-13.926,12.943-27,20.034-35.882,20.034a10.2,10.2,0,0,1-4.827-1.153Zm101.324-32.55c2.008,16.318-.47,29-6.237,32.379a9.507,9.507,0,0,1-4.912,1.111c-8.842,0-21.956-7.048-35.882-19.906A201.754,201.754,0,0,0,305,213.711a199.479,199.479,0,0,0,27.168-4.7A119.59,119.59,0,0,1,334.392,221.443Zm16.446-28.492c-3.674,1.581-7.689,2.99-11.833,4.314a205.158,205.158,0,0,0-9.611-26.014,202.268,202.268,0,0,0,9.483-25.886c4.229,1.324,8.244,2.777,12,4.357,15.122,6.45,24.9,14.908,24.9,21.615-.043,6.707-9.825,15.207-24.947,21.615ZM237.682,78.171Z"
                      fill="#61dafb"/>
                <circle id="Ellipse_1" data-name="Ellipse 1" cx="19.522" cy="19.522" r="19.522"
                        transform="translate(260.92 151.814)" fill="#61dafb"/>
                <path id="Path_2" data-name="Path 2" d="M520.5,78.1Z" transform="translate(-197.513 -0.057)"
                      fill="#61dafb"/>
            </g>
        </g>
        <line id="Line_1" data-name="Line 1" x2="488" transform="translate(1418.5 495.5)" fill="none" stroke="#a0a0a0"
              stroke-width="11" stroke-dasharray="15"/>
    </g>
</svg>
